<svg width="20" height="20" viewBox="0 0 20 20" fill="none" xmlns="http://www.w3.org/2000/svg">
<path d="M10 17.5C14.1421 17.5 17.5 14.1421 17.5 10C17.5 5.85786 14.1421 2.5 10 2.5C5.85786 2.5 2.5 5.85786 2.5 10C2.5 14.1421 5.85786 17.5 10 17.5Z" fill="#CC2C1A"/>
<path d="M11.6667 8.33333L8.33333 11.6667L11.6667 8.33333Z" fill="#CC2C1A"/>
<path d="M10 17.5C14.1421 17.5 17.5 14.1421 17.5 10C17.5 5.85786 14.1421 2.5 10 2.5C5.85786 2.5 2.5 5.85786 2.5 10C2.5 14.1421 5.85786 17.5 10 17.5Z" fill="#CC2C1A"/>
<path d="M11.6667 8.33331L8.33337 11.6666L11.6667 8.33331Z" fill="#CC2C1A"/>
<path d="M8.33337 8.33331L11.6667 11.6666M11.6667 8.33331L8.33337 11.6666" stroke="white" stroke-width="1.5" stroke-linecap="round" stroke-linejoin="round"/>
</svg>
