<svg viewBox="0 0 16 16" fill="none" xmlns="http://www.w3.org/2000/svg">
<path d="M8.2897 0.874383C8.201 0.825501 8.10137 0.799866 8.0001 0.799866C7.89882 0.799866 7.79919 0.825501 7.7105 0.874383L2.0185 4.01438L8.0001 7.31438L13.9817 4.01438L8.2897 0.874383ZM14.4001 5.15438L8.6001 8.35438V14.9544L14.0897 11.9256C14.1837 11.8738 14.2621 11.7977 14.3167 11.7052C14.3713 11.6128 14.4001 11.5074 14.4001 11.4V5.15438ZM7.4001 14.9544V8.35438L1.6001 5.15438V11.4C1.60008 11.5074 1.62887 11.6128 1.68346 11.7052C1.73806 11.7977 1.81646 11.8738 1.9105 11.9256L7.4001 14.9544Z" fill="currentColor"/>
</svg>
