<svg viewBox="0 0 16 16" fill="none" xmlns="http://www.w3.org/2000/svg">
<g clip-path="url(#clip0_3284_35342)">
<path d="M12.0002 5.33334H6.66683C5.93045 5.33334 5.3335 5.93029 5.3335 6.66667V12C5.3335 12.7364 5.93045 13.3333 6.66683 13.3333H12.0002C12.7365 13.3333 13.3335 12.7364 13.3335 12V6.66667C13.3335 5.93029 12.7365 5.33334 12.0002 5.33334Z" stroke="currentColor" stroke-width="1.2" stroke-linecap="round" stroke-linejoin="round"/>
<path d="M10.6665 5.33333V4C10.6665 3.64638 10.526 3.30724 10.276 3.05719C10.0259 2.80714 9.68679 2.66666 9.33317 2.66666H3.99984C3.64622 2.66666 3.30708 2.80714 3.05703 3.05719C2.80698 3.30724 2.6665 3.64638 2.6665 4V9.33333C2.6665 9.68695 2.80698 10.0261 3.05703 10.2761C3.30708 10.5262 3.64622 10.6667 3.99984 10.6667H5.33317" stroke="currentColor" stroke-width="1.2" stroke-linecap="round" stroke-linejoin="round"/>
</g>
<defs>
<clipPath id="clip0_3284_35342">
<rect width="16" height="16" fill="white"/>
</clipPath>
</defs>
</svg>
