<svg viewBox="0 0 20 20" fill="none" xmlns="http://www.w3.org/2000/svg">
<path fill-rule="evenodd" clip-rule="evenodd" d="M9.82138 4.18721C7.98034 4.18721 6.47767 5.69561 6.47767 7.5596V8.01843C7.56739 8.27078 8.92667 8.45431 10.372 8.42564C11.2896 8.40843 12.2302 8.31093 13.1594 8.09299V7.55386C13.1594 5.68987 11.6567 4.18147 9.81565 4.18147L9.82138 4.18721ZM5.34781 7.5596V7.69725C5.14134 7.62842 4.95207 7.55386 4.78574 7.48504C4.41298 7.32722 4 7.60085 4 8.00564V16.6215H12.3007C13.4053 16.6215 14.3007 15.726 14.3007 14.6215V8.97049C15.5969 8.57476 16.8644 7.95534 18 7.03194L17.2888 6.15444C16.3769 6.8943 15.356 7.42768 14.3007 7.78328V7.56533C14.3007 5.08192 12.2991 3.06308 9.82712 3.06308C7.35518 3.06308 5.34781 5.07619 5.34781 7.5596ZM10.4007 9.56124C11.2954 9.54403 12.236 9.45226 13.1708 9.25726V15.4859H5.12986V8.82137C6.449 9.24579 8.34166 9.59565 10.3949 9.56124H10.4007ZM10.4293 11.9299C10.4293 12.3716 10.1884 12.7558 9.82712 12.9566V14.2183H8.69726V12.9738C8.32446 12.773 8.0721 12.383 8.0721 11.9357C8.0721 11.2876 8.59975 10.7599 9.24785 10.7599C9.89594 10.7599 10.4236 11.2876 10.4236 11.9357L10.4293 11.9299Z" fill="currentColor"/>
<rect x="7.57278" y="10.3892" width="3.23584" height="4.0448" fill="white"/>
<path fill-rule="evenodd" clip-rule="evenodd" d="M9.76071 12.8699C10.0176 12.7106 10.1886 12.4261 10.1886 12.1016C10.1886 11.6026 9.78414 11.1981 9.28518 11.1981C8.78621 11.1981 8.38171 11.6026 8.38171 12.1016C8.38171 12.426 8.55269 12.7104 8.80944 12.8698V13.4863C8.80944 13.7489 9.02239 13.9619 9.28507 13.9619C9.54776 13.9619 9.76071 13.7489 9.76071 13.4863V12.8699Z" fill="currentColor"/>
</svg>
