<svg viewBox="0 0 16 14" fill="none" xmlns="http://www.w3.org/2000/svg">
<path d="M13.5424 1.86104C12.5071 1.38124 11.4044 1.0277 10.2428 0.825684C10.0997 1.07821 9.93131 1.42333 9.82189 1.70111C8.59293 1.51592 7.37238 1.51592 6.16867 1.70111C6.05083 1.42333 5.88248 1.07821 5.73938 0.825684C4.57776 1.0277 3.47506 1.38124 2.43971 1.86104C0.352155 5.0092 -0.21182 8.0816 0.0659589 11.1035C1.45485 12.1389 2.79324 12.7618 4.11479 13.1742C4.44308 12.7281 4.72928 12.2483 4.9818 11.7516C4.502 11.5749 4.04745 11.3476 3.61816 11.0867C3.73601 11.0025 3.84543 10.9099 3.95486 10.8257C6.58955 12.0547 9.4431 12.0547 12.0441 10.8257C12.1535 10.9183 12.263 11.0025 12.3808 11.0867C11.9515 11.3476 11.4886 11.5665 11.0172 11.7516C11.2697 12.2483 11.5559 12.7281 11.8842 13.1742C13.2057 12.7618 14.5525 12.1389 15.933 11.1035C16.2613 7.59339 15.369 4.55465 13.5593 1.86104H13.5424ZM5.33534 9.25164C4.54409 9.25164 3.89594 8.51931 3.89594 7.61864C3.89594 6.71796 4.52725 5.98564 5.33534 5.98564C6.14342 5.98564 6.78315 6.71796 6.77474 7.61864C6.77474 8.5109 6.14342 9.25164 5.33534 9.25164ZM10.6468 9.25164C9.85556 9.25164 9.20741 8.51931 9.20741 7.61864C9.20741 6.71796 9.83872 5.98564 10.6468 5.98564C11.4549 5.98564 12.0946 6.71796 12.0862 7.61864C12.0862 8.5109 11.4549 9.25164 10.6468 9.25164Z" fill="currentColor"/>
</svg>
