<svg viewBox="0 0 16 16" fill="none" xmlns="http://www.w3.org/2000/svg">
<path fill-rule="evenodd" clip-rule="evenodd" d="M4 2C3.46957 2 2.96086 2.21071 2.58579 2.58579C2.21071 2.96086 2 3.46957 2 4V12C2 12.5304 2.21071 13.0391 2.58579 13.4142C2.96086 13.7893 3.46957 14 4 14H12C12.5304 14 13.0391 13.7893 13.4142 13.4142C13.7893 13.0391 14 12.5304 14 12V4C14 3.46957 13.7893 2.96086 13.4142 2.58579C13.0391 2.21071 12.5304 2 12 2H4ZM4.75 9C4.55109 9 4.36032 9.07902 4.21967 9.21967C4.07902 9.36032 4 9.55109 4 9.75V11.25C4 11.4489 4.07902 11.6397 4.21967 11.7803C4.36032 11.921 4.55109 12 4.75 12C4.94891 12 5.13968 11.921 5.28033 11.7803C5.42098 11.6397 5.5 11.4489 5.5 11.25V9.75C5.5 9.55109 5.42098 9.36032 5.28033 9.21967C5.13968 9.07902 4.94891 9 4.75 9ZM7.25 7.25C7.25 7.05109 7.32902 6.86032 7.46967 6.71967C7.61032 6.57902 7.80109 6.5 8 6.5C8.19891 6.5 8.38968 6.57902 8.53033 6.71967C8.67098 6.86032 8.75 7.05109 8.75 7.25V11.25C8.75 11.4489 8.67098 11.6397 8.53033 11.7803C8.38968 11.921 8.19891 12 8 12C7.80109 12 7.61032 11.921 7.46967 11.7803C7.32902 11.6397 7.25 11.4489 7.25 11.25V7.25ZM11.25 4C11.0511 4 10.8603 4.07902 10.7197 4.21967C10.579 4.36032 10.5 4.55109 10.5 4.75V11.25C10.5 11.4489 10.579 11.6397 10.7197 11.7803C10.8603 11.921 11.0511 12 11.25 12C11.4489 12 11.6397 11.921 11.7803 11.7803C11.921 11.6397 12 11.4489 12 11.25V4.75C12 4.55109 11.921 4.36032 11.7803 4.21967C11.6397 4.07902 11.4489 4 11.25 4Z" fill="currentColor"/>
</svg>
