<svg viewBox="0 0 20 20" fill="none" xmlns="http://www.w3.org/2000/svg">
<g clip-path="url(#clip0_1456_22067)">
<mask id="path-1-inside-1_1456_22067" fill="white">
<path d="M11.6667 2.7312V6.06453C11.6667 6.28555 11.7545 6.49751 11.9108 6.65379C12.067 6.81007 12.279 6.89787 12.5 6.89787H15.8334"/>
</mask>
<path d="M13.1667 2.7312C13.1667 1.90277 12.4951 1.2312 11.6667 1.2312C10.8383 1.2312 10.1667 1.90277 10.1667 2.7312H13.1667ZM15.8334 8.39787C16.6618 8.39787 17.3334 7.72629 17.3334 6.89787C17.3334 6.06944 16.6618 5.39787 15.8334 5.39787V8.39787ZM10.1667 2.7312V6.06453H13.1667V2.7312H10.1667ZM10.1667 6.06453C10.1667 6.68337 10.4125 7.27687 10.8501 7.71445L12.9714 5.59313C13.0964 5.71815 13.1667 5.88772 13.1667 6.06453H10.1667ZM10.8501 7.71445C11.2877 8.15203 11.8812 8.39787 12.5 8.39787V5.39787C12.6768 5.39787 12.8464 5.46811 12.9714 5.59313L10.8501 7.71445ZM12.5 8.39787H15.8334V5.39787H12.5V8.39787Z" fill="white" mask="url(#path-1-inside-1_1456_22067)"/>
<path d="M14.1667 17.7312H5.83335C5.39133 17.7312 4.9674 17.5556 4.65484 17.243C4.34228 16.9305 4.16669 16.5066 4.16669 16.0645V4.39787C4.16669 3.95584 4.34228 3.53192 4.65484 3.21936C4.9674 2.9068 5.39133 2.7312 5.83335 2.7312H11.6667L15.8334 6.89787V16.0645C15.8334 16.5066 15.6578 16.9305 15.3452 17.243C15.0326 17.5556 14.6087 17.7312 14.1667 17.7312Z" fill="currentColor" stroke="currentColor" stroke-width="1.5" stroke-linecap="round" stroke-linejoin="round"/>
<path d="M7.5 14.3979H12.5" stroke="white" stroke-width="1.5" stroke-linecap="round" stroke-linejoin="round"/>
<path d="M7.5 11.0645H12.5" stroke="white" stroke-width="1.5" stroke-linecap="round" stroke-linejoin="round"/>
<mask id="path-6-inside-2_1456_22067" fill="white">
<path d="M11.667 2.7312V6.06453C11.667 6.28555 11.7548 6.49751 11.9111 6.65379C12.0674 6.81007 12.2793 6.89787 12.5003 6.89787H15.8337"/>
</mask>
<path d="M12.867 2.7312C12.867 2.06846 12.3297 1.5312 11.667 1.5312C11.0043 1.5312 10.467 2.06846 10.467 2.7312H12.867ZM15.8337 8.09787C16.4964 8.09787 17.0337 7.56061 17.0337 6.89787C17.0337 6.23513 16.4964 5.69787 15.8337 5.69787V8.09787ZM10.467 2.7312V6.06453H12.867V2.7312H10.467ZM10.467 6.06453C10.467 6.60381 10.6812 7.12099 11.0625 7.50232L12.7596 5.80526C12.8284 5.87402 12.867 5.96729 12.867 6.06453H10.467ZM11.0625 7.50232C11.4439 7.88364 11.9611 8.09787 12.5003 8.09787V5.69787C12.5976 5.69787 12.6908 5.7365 12.7596 5.80526L11.0625 7.50232ZM12.5003 8.09787H15.8337V5.69787H12.5003V8.09787Z" fill="white" mask="url(#path-6-inside-2_1456_22067)"/>
</g>
<defs>
<clipPath id="clip0_1456_22067">
<rect width="20" height="20" fill="white" transform="translate(0 0.231201)"/>
</clipPath>
</defs>
</svg>
