<svg viewBox="0 0 16 16" fill="none" xmlns="http://www.w3.org/2000/svg">
<path d="M8 7C11.314 7 14 5.657 14 4C14 2.343 11.314 1 8 1C4.686 1 2 2.343 2 4C2 5.657 4.686 7 8 7Z" fill="currentColor"/>
<path d="M8 8.50003C9.84 8.50003 11.579 8.13003 12.914 7.46303C13.2982 7.27273 13.6621 7.04389 14 6.78003V8.00003C14 9.65703 11.314 11 8 11C4.686 11 2 9.65703 2 8.00003V6.78003C2.346 7.05303 2.72 7.28003 3.087 7.46303C4.42 8.13103 6.16 8.50003 8 8.50003Z" fill="currentColor"/>
<path d="M8 12.5C9.84 12.5 11.579 12.13 12.914 11.463C13.28 11.28 13.654 11.053 14 10.779V12C14 13.657 11.314 15 8 15C4.686 15 2 13.657 2 12V10.78C2.346 11.053 2.72 11.28 3.087 11.463C4.42 12.131 6.16 12.5 8 12.5Z" fill="currentColor"/>
</svg>
