<svg viewBox="0 0 21 21" fill="none" xmlns="http://www.w3.org/2000/svg">
<path fill-rule="evenodd" clip-rule="evenodd" d="M10.9866 13.1732C11.2313 13.0215 11.3942 12.7505 11.3942 12.4414C11.3942 11.9662 11.009 11.581 10.5338 11.581C10.0586 11.581 9.67334 11.9662 9.67334 12.4414C9.67334 12.7504 9.83616 13.0213 10.0807 13.173V13.7602C10.0807 14.0104 10.2835 14.2132 10.5337 14.2132C10.7838 14.2132 10.9866 14.0104 10.9866 13.7602V13.1732Z" fill="currentColor"/>
<path fill-rule="evenodd" clip-rule="evenodd" d="M7.85969 8.11487C7.85969 6.33964 8.73797 4.53996 10.487 4.41696C12.0154 4.30948 12.952 4.71593 13.5263 6.31182H14.6058C13.9445 3.12591 10.5677 3.35182 10.498 3.35182C8.14373 3.35203 6.78363 5.74972 6.78363 8.11487V8.24597C6.58699 8.18042 6.40673 8.10941 6.24833 8.04386C5.89331 7.89357 5.5 8.15416 5.5 8.53968V16.7452H13.3102C14.4148 16.7452 15.3102 15.8498 15.3102 14.7452V9.45859C16.5447 9.08169 17.7518 8.49177 18.8333 7.61235L18.156 6.77662C17.2962 7.47423 16.3346 7.9791 15.3402 8.31773L15.3392 8.32131L14.2232 8.62177V8.62286C13.3383 8.83043 12.4425 8.92329 11.5686 8.93967C10.1921 8.96698 8.89752 8.79219 7.85969 8.55185V8.11487ZM14.2341 9.7317C13.3438 9.91741 12.448 10.0048 11.5959 10.0212H11.5904C9.63492 10.054 7.83238 9.72077 6.57606 9.31657V15.6637H14.2341V9.7317Z" fill="currentColor"/>
</svg>
