<svg width="84" height="20" viewBox="0 0 84 20" fill="none" xmlns="http://www.w3.org/2000/svg">
<path d="M30.5838 14.3922H30.4743L30.429 14.4896C29.9457 15.5347 28.2805 16.7821 25.5808 16.7821C23.9308 16.7821 22.6772 16.3439 21.7975 15.5947C20.963 14.8829 20.4495 13.8715 20.257 12.6428H34.2614V10.2303C34.2614 7.93778 33.3363 6.07601 31.7656 4.78738C30.1949 3.49875 27.986 2.79449 25.4222 2.79449C22.5489 2.79449 20.2532 3.67856 18.6711 5.1957C17.0928 6.71658 16.2471 8.8593 16.2471 11.3504C16.2471 13.8415 17.0551 15.9767 18.6334 17.5276C20.2117 19.0785 22.5489 20 25.5733 20C30.9764 20 33.8725 16.9919 34.2878 14.5907L34.3218 14.3884H30.58H30.5838V14.3922ZM25.3958 6.04979C26.7891 6.04979 28.0578 6.38693 28.9677 7.04248C29.8362 7.66432 30.3912 8.58959 30.4365 9.82578H20.2607C20.3098 8.57835 20.8837 7.65683 21.7748 7.03499C22.7112 6.37944 23.9988 6.04979 25.392 6.04979H25.3958Z" fill="#2C2A2A"/>
<path d="M81.795 4.29663C80.398 3.19904 78.4195 2.79822 76.0898 2.79822C72.903 2.79822 70.8754 3.50247 69.6294 4.53263C68.3834 5.56653 67.9492 6.9151 67.9152 8.15128V8.32735H71.7137L71.7288 8.17001C71.7703 7.67554 72.0195 7.13237 72.6576 6.70906C73.3033 6.28202 74.3605 5.96361 76.0294 5.96361C77.5775 5.96361 78.5818 6.2558 79.1973 6.74278C79.8014 7.22227 80.0582 7.90405 80.0582 8.76188V9.46988H79.2275C73.443 9.46988 70.8113 10.073 69.1877 11.1031L69.2783 11.2418V11.2492L69.1914 11.1031C67.6887 12.0696 66.9524 13.3358 66.9524 14.8866C66.9524 16.0966 67.3791 17.344 68.4552 18.2843C69.5313 19.2283 71.2341 19.8464 73.7564 19.8464C76.4447 19.8464 79.0123 18.8724 80.4622 17.5163V19.7003H84.0001V9.84823C84.0001 7.17732 83.2147 5.39796 81.8064 4.29663H81.7988H81.795ZM78.7668 15.8156C77.8418 16.4 76.4296 16.8608 74.5078 16.8608C73.2278 16.8608 72.2914 16.6585 71.6797 16.2989C71.0793 15.9468 70.7886 15.4373 70.7886 14.7892C70.7886 14.2498 71.0038 13.8228 71.4041 13.4706C71.8081 13.1148 72.4084 12.8376 73.1673 12.6278C74.6814 12.2082 76.777 12.0809 79.0727 12.0809H80.1186V14.0925C80.1186 14.3097 80.0204 14.5907 79.7939 14.9016C79.5711 15.205 79.2313 15.5272 78.7668 15.8194V15.8156Z" fill="#2C2A2A"/>
<path d="M65.3061 16.52L65.2948 16.3477C64.7435 16.3776 64.4113 16.3776 64.0412 16.3776C62.8367 16.3776 62.0854 16.239 61.6247 15.8944C61.1829 15.5573 60.9753 14.9991 60.9753 14.0251V6.65672H65.2948V3.24035H60.9753V0.022522H57.2335V1.10138C57.2335 2.0229 57.1089 2.62601 56.7502 3.00061C56.3952 3.37521 55.7647 3.57375 54.6319 3.57375H54.4583V6.65298H57.0522V14.8717C57.0522 16.4601 57.426 17.7225 58.4077 18.5766C59.3857 19.4269 60.9262 19.8465 63.1766 19.8465C63.7996 19.8465 64.483 19.8165 65.3212 19.7266L65.476 19.7079V16.3327L65.291 16.3439L65.3023 16.5163L65.3061 16.52Z" fill="#2C2A2A"/>
<path d="M50.1274 14.3922H50.0179L49.9726 14.4896C49.4893 15.5347 47.8241 16.7821 45.1244 16.7821C43.4782 16.7821 42.2246 16.3439 41.3411 15.5947C40.5066 14.8829 39.9931 13.8715 39.8043 12.6428H53.8125V10.2303C53.8125 7.93778 52.8875 6.07601 51.3167 4.78738C49.746 3.49875 47.5372 2.79449 44.9734 2.79449C42.1 2.79449 39.8043 3.67856 38.2261 5.1957C36.6478 6.71658 35.802 8.8593 35.802 11.3504C35.802 13.8415 36.61 15.9767 38.1883 17.5276C39.7666 19.0785 42.1038 20 45.1282 20C50.5276 20 53.4274 16.9919 53.8427 14.5907L53.8767 14.3884H50.1349L50.1274 14.3922ZM44.9394 6.04979C46.3327 6.04979 47.6014 6.38693 48.5113 7.04248C49.3798 7.66432 49.9348 8.58959 49.9801 9.82578H39.8043C39.8534 8.57835 40.4274 7.65683 41.3184 7.03499C42.2548 6.37944 43.5424 6.04979 44.9357 6.04979H44.9394Z" fill="#2C2A2A"/>
<path d="M15.998 0.026222H10.693L3.89662 7.18487V0H0V19.6404H3.89662V11.3355L15.998 0.026222Z" fill="#2C2A2A"/>
<path d="M6.07921 9.50745C6.21514 15.1789 11.1048 19.8615 16.8289 19.6292V16.4638C15.8585 16.4151 14.7145 16.1829 13.8536 15.7783C12.1545 14.9916 10.9877 13.9015 10.3685 12.1596C10.0627 11.3055 9.93052 10.4027 9.97206 9.50745H6.07544H6.07921Z" fill="url(#paint0_linear_3266_23083)"/>
<defs>
<linearGradient id="paint0_linear_3266_23083" x1="11.6636" y1="14.7406" x2="10.9127" y2="9.20242" gradientUnits="userSpaceOnUse">
<stop stop-color="#2C2A2A"/>
<stop offset="0.28" stop-color="#464444" stop-opacity="0.87"/>
<stop offset="0.64" stop-color="#919090" stop-opacity="0.52"/>
<stop offset="1" stop-color="white" stop-opacity="0"/>
</linearGradient>
</defs>
</svg>
